<svg width="351" height="339" viewBox="0 0 351 339" fill="none" xmlns="http://www.w3.org/2000/svg">
<path d="M80.2188 196.48C80.2188 213.776 93.4509 225.936 111.536 227.797C111.536 227.797 132.193 229.935 153.83 229.935C173.695 229.935 195.702 227.797 195.702 227.797C212.794 225.936 227.023 213.776 227.023 196.48V150.136C227.023 132.84 212.973 119.592 195.702 118.816C195.702 118.816 175.833 116.679 153.83 116.679C130.705 116.679 111.536 118.816 111.536 118.816C94.5191 119.95 80.2188 132.84 80.2188 150.136V196.48Z" fill="#FFD74B"/>
<path d="M96.0472 187.873C96.0472 203.304 107.857 214.153 123.991 215.815C123.991 215.815 142.416 217.723 161.725 217.723C179.45 217.723 199.08 215.815 199.08 215.815C214.329 214.151 227.023 203.304 227.023 187.873V146.527C227.023 131.096 214.488 119.277 199.08 118.585C199.08 118.585 181.355 116.679 161.725 116.679C141.092 116.679 123.991 118.585 123.991 118.585C108.803 119.594 96.0472 131.096 96.0472 146.527V187.873Z" fill="#FFD74B"/>
<path d="M156.679 198.878H161.315C165.486 198.878 168.877 195.52 168.877 191.391V186.403C168.877 185.39 168.048 184.569 167.025 184.569C166.002 184.569 165.173 185.39 165.173 186.403V191.391C165.173 193.497 163.444 195.209 161.317 195.209H156.68C154.554 195.209 152.824 193.496 152.824 191.391V186.403C152.824 185.39 151.995 184.569 150.972 184.569C149.949 184.569 149.121 185.39 149.121 186.403V191.391C149.117 195.52 152.51 198.878 156.679 198.878Z" fill="black"/>
<g clip-path="url(#clip0_933_4906)">
<path d="M198.902 176.889C198.902 180.909 195.64 184.169 191.62 184.169C187.604 184.169 184.345 180.909 184.345 176.889C184.345 172.869 187.604 169.613 191.62 169.613C195.64 169.613 198.902 172.869 198.902 176.889Z" fill="black"/>
</g>
<g clip-path="url(#clip1_933_4906)">
<path d="M134.389 176.889C134.389 180.909 131.128 184.169 127.108 184.169C123.091 184.169 119.833 180.909 119.833 176.889C119.833 172.869 123.091 169.613 127.108 169.613C131.128 169.613 134.389 172.869 134.389 176.889Z" fill="black"/>
</g>
<path d="M155.348 267.999C155.348 284.753 159.654 299.189 164.964 299.189C170.275 299.189 174.584 284.755 174.584 267.999C174.584 251.242 174.584 243.613 164.964 243.613C155.348 243.614 155.348 251.242 155.348 267.999Z" fill="#FFD74B"/>
<path d="M132.484 267.999C132.484 284.753 136.794 299.189 142.103 299.189C147.42 299.189 151.725 284.755 151.725 267.999C151.725 251.242 151.725 243.613 142.103 243.613C132.484 243.614 132.484 251.242 132.484 267.999Z" fill="#FFD74B"/>
<path d="M117.497 249.925C117.497 264.32 129.163 275.99 143.564 275.99H163.506C177.907 275.99 189.577 264.32 189.577 249.925V229.989C189.577 215.591 177.907 215.602 163.506 215.602H143.564C129.162 215.602 117.497 215.591 117.497 229.989V249.925Z" fill="#FFD74B"/>
<path d="M188.776 246.545C205.467 245.115 219.481 239.586 219.029 234.295C218.576 229.001 203.825 225.946 187.13 227.378C170.432 228.813 162.835 229.464 163.656 239.048C164.477 248.631 172.078 247.978 188.776 246.545Z" fill="#FFD74B"/>
<path d="M119.216 228.112C102.706 225.242 87.749 227.015 86.84 232.247C85.9238 237.482 99.4136 244.196 115.922 247.068C132.43 249.938 139.944 251.244 141.592 241.766C143.238 232.288 135.723 230.982 119.216 228.112Z" fill="#FFD74B"/>
<path d="M124.463 242.555C124.463 255.56 135.007 266.103 148.01 266.103H166.025C179.034 266.103 189.577 255.558 189.577 242.555V222.546C189.577 209.539 179.032 210.677 166.025 210.677H148.01C135.006 210.677 124.463 209.541 124.463 222.546V242.555Z" fill="#FFD74B"/>
<path d="M187.748 227.905C191.121 227.905 193.854 225.172 193.854 221.799C193.854 218.427 191.121 215.694 187.748 215.694C184.376 215.694 181.643 218.427 181.643 221.799C181.643 225.172 184.376 227.905 187.748 227.905Z" fill="#FFD74B"/>
<path d="M122.398 226.49C125.771 226.49 128.506 223.756 128.506 220.383C128.506 217.009 125.771 214.275 122.398 214.275C119.025 214.275 116.291 217.009 116.291 220.383C116.291 223.756 119.025 226.49 122.398 226.49Z" fill="#FFD74B"/>
<path d="M109.175 46.7297C112.855 46.7297 118.003 56.3768 118.003 56.3768C118.003 56.3768 129.116 58.5454 130.252 62.044C131.389 65.5426 123.46 73.1683 123.46 73.1683C123.46 73.1683 125.179 84.6598 122.201 86.8218C119.226 88.9871 109.175 83.5465 109.175 83.5465C109.175 83.5465 99.1257 88.9871 96.1499 86.8218C93.174 84.6598 94.891 73.1683 94.891 73.1683C94.891 73.1683 86.961 65.5442 88.099 62.044C89.2371 58.5438 100.346 56.3768 100.346 56.3768C100.346 56.3768 105.496 46.7297 109.175 46.7297Z" fill="#E69B00"/>
<path d="M92.8418 82.0197L96.1501 86.8201L130.252 62.044L126.944 57.2419L92.8418 82.0197Z" fill="#E69B00"/>
<path d="M105.867 41.9292C109.547 41.9292 114.695 51.573 114.695 51.573C114.695 51.573 125.808 53.7449 126.944 57.2435C128.08 60.742 120.152 68.3678 120.152 68.3678C120.152 68.3678 121.871 79.8592 118.893 82.0212C115.917 84.1832 105.867 78.746 105.867 78.746C105.867 78.746 95.8176 84.1832 92.8418 82.0212C89.8659 79.8592 91.5829 68.3678 91.5829 68.3678C91.5829 68.3678 83.6529 60.7437 84.7909 57.2435C85.929 53.7433 97.0384 51.573 97.0384 51.573C97.0384 51.573 102.188 41.9292 105.867 41.9292Z" fill="#FFC54B"/>
<path d="M163.172 32.1548C166.852 32.1548 172 41.7986 172 41.7986C172 41.7986 183.111 43.9705 184.249 47.4691C185.386 50.9676 177.457 58.5933 177.457 58.5933C177.457 58.5933 179.176 70.0848 176.198 72.2468C173.223 74.4121 163.172 68.9732 163.172 68.9732C163.172 68.9732 153.123 74.4105 150.145 72.2468C147.169 70.0848 148.888 58.5933 148.888 58.5933C148.888 58.5933 140.958 50.9693 142.096 47.4691C143.234 43.9688 154.345 41.7986 154.345 41.7986C154.345 41.7986 159.495 32.1548 163.172 32.1548Z" fill="#E69B00"/>
<path d="M146.837 67.4446L150.145 72.2466L184.249 47.4688L180.941 42.6685L146.837 67.4446Z" fill="#E69B00"/>
<path d="M159.864 27.3542C163.544 27.3542 168.692 36.998 168.692 36.998C168.692 36.998 179.803 39.17 180.941 42.6685C182.078 46.1671 174.149 53.7928 174.149 53.7928C174.149 53.7928 175.868 65.2843 172.89 67.4463C169.914 69.6083 159.864 64.171 159.864 64.171C159.864 64.171 149.815 69.6083 146.837 67.4463C143.861 65.2843 145.58 53.7928 145.58 53.7928C145.58 53.7928 137.65 46.1687 138.788 42.6685C139.926 39.1683 151.037 36.998 151.037 36.998C151.037 36.998 156.187 27.3542 159.864 27.3542Z" fill="#FFC54B"/>
<path d="M217.172 46.7297C220.851 46.7297 225.998 56.3768 225.998 56.3768C225.998 56.3768 237.111 58.5454 238.246 62.044C239.384 65.5426 231.456 73.1683 231.456 73.1683C231.456 73.1683 233.173 84.6598 230.197 86.8218C227.221 88.9871 217.172 83.5465 217.172 83.5465C217.172 83.5465 207.121 88.9871 204.144 86.8218C201.168 84.6598 202.885 73.1683 202.885 73.1683C202.885 73.1683 194.956 65.5442 196.094 62.044C197.231 58.5454 208.342 56.3768 208.342 56.3768C208.342 56.3768 213.491 46.7297 217.172 46.7297Z" fill="#E69B00"/>
<path d="M200.835 82.0197L204.144 86.8201L238.246 62.044L234.938 57.2419L200.835 82.0197Z" fill="#E69B00"/>
<path d="M213.864 41.9292C217.543 41.9292 222.69 51.573 222.69 51.573C222.69 51.573 233.803 53.7449 234.938 57.2435C236.076 60.742 228.147 68.3678 228.147 68.3678C228.147 68.3678 229.864 79.8592 226.889 82.0212C223.913 84.1832 213.864 78.746 213.864 78.746C213.864 78.746 203.813 84.1832 200.836 82.0212C197.86 79.8592 199.577 68.3678 199.577 68.3678C199.577 68.3678 191.648 60.7437 192.786 57.2435C193.923 53.7449 205.034 51.573 205.034 51.573C205.034 51.573 210.183 41.9292 213.864 41.9292Z" fill="#FFC54B"/>
<defs>
<clipPath id="clip0_933_4906">
<rect width="14.8875" height="29.4616" fill="white" transform="matrix(-1 0 0 1 198.902 169.613)"/>
</clipPath>
<clipPath id="clip1_933_4906">
<rect width="14.8875" height="29.4616" fill="white" transform="matrix(-1 0 0 1 134.389 169.613)"/>
</clipPath>
</defs>
</svg>
