<svg width="328" height="429" viewBox="0 0 328 429" fill="none" xmlns="http://www.w3.org/2000/svg">
<path d="M92.9283 204.412C92.9283 222.187 106.527 234.684 125.113 236.596C125.113 236.596 146.343 238.794 168.579 238.794C188.995 238.794 211.611 236.596 211.611 236.596C229.177 234.684 243.8 222.187 243.8 204.412V156.784C243.8 139.009 229.361 125.394 211.611 124.596C211.611 124.596 191.192 122.4 168.579 122.4C144.813 122.4 125.113 124.596 125.113 124.596C107.625 125.761 92.9283 139.009 92.9283 156.784V204.412Z" fill="#FFD74B"/>
<path d="M109.195 195.567C109.195 211.425 121.332 222.575 137.913 224.283C137.913 224.283 156.849 226.243 176.692 226.243C194.909 226.243 215.083 224.283 215.083 224.283C230.755 222.573 243.8 211.425 243.8 195.567V153.075C243.8 137.216 230.918 125.07 215.083 124.358C215.083 124.358 196.867 122.4 176.692 122.4C155.488 122.4 137.913 124.358 137.913 124.358C122.305 125.395 109.195 137.216 109.195 153.075V195.567Z" fill="#FFD74B"/>
<path d="M171.507 206.877H176.272C180.558 206.877 184.043 203.425 184.043 199.182V194.056C184.043 193.015 183.191 192.171 182.14 192.171C181.089 192.171 180.237 193.015 180.237 194.056V199.182C180.237 201.347 178.459 203.105 176.274 203.105H171.508C169.323 203.105 167.545 201.345 167.545 199.182V194.056C167.545 193.015 166.693 192.171 165.642 192.171C164.591 192.171 163.739 193.015 163.739 194.056V199.182C163.735 203.425 167.223 206.877 171.507 206.877Z" fill="black"/>
<g clip-path="url(#clip0_932_3993)">
<path d="M214.9 184.278C214.9 188.409 211.548 191.76 207.417 191.76C203.289 191.76 199.94 188.409 199.94 184.278C199.94 180.146 203.289 176.8 207.417 176.8C211.548 176.8 214.9 180.146 214.9 184.278Z" fill="black"/>
</g>
<g clip-path="url(#clip1_932_3993)">
<path d="M148.6 184.278C148.6 188.409 145.248 191.76 141.116 191.76C136.988 191.76 133.64 188.409 133.64 184.278C133.64 180.146 136.988 176.8 141.116 176.8C145.248 176.8 148.6 180.146 148.6 184.278Z" fill="black"/>
</g>
<g clip-path="url(#clip2_932_3993)">
<path d="M133.741 272.592C133.746 284.482 143.389 294.118 155.284 294.113L171.759 294.108C183.654 294.102 193.29 284.458 193.285 272.567L193.267 254.725C193.262 242.832 183.618 246.259 171.724 246.264L155.247 246.271C143.352 246.276 133.718 242.858 133.722 254.75L133.741 272.592Z" fill="#E9552E"/>
<path d="M139.494 266.502C139.499 277.245 148.209 285.95 158.952 285.944L173.836 285.938C184.58 285.934 193.287 277.22 193.282 266.477L193.266 249.943C193.262 239.197 184.58 241.516 173.836 241.52L158.952 241.526C148.208 241.532 139.475 239.222 139.478 249.967L139.494 266.502Z" fill="#E9552E"/>
<path d="M188.248 250.055C188.249 252.834 190.499 255.085 193.277 255.083C196.053 255.083 198.302 252.829 198.301 250.05C198.299 247.277 196.05 245.026 193.272 245.028C190.496 245.028 188.248 247.28 188.248 250.055Z" fill="#E9552E"/>
<path d="M139.486 253.938C136.709 253.938 134.458 251.687 134.458 248.911C134.458 246.134 136.709 243.884 139.486 243.884C142.262 243.884 144.513 246.134 144.513 248.911C144.513 251.687 142.262 253.938 139.486 253.938Z" fill="#E9552E"/>
<path d="M143.329 280.784H200.215V548.129H143.329V280.784Z" fill="#FFB444"/>
<path d="M162.868 280.782H180.674V548.129H162.868V280.782Z" fill="#FFDD91"/>
<path d="M144.907 270.608C144.908 273.035 146.71 275.001 148.935 275.001L194.485 274.98C196.708 274.979 198.51 273.012 198.509 270.584L198.495 240.158C198.495 237.731 196.692 235.765 194.468 235.767L148.919 235.786C146.696 235.786 144.894 237.755 144.895 240.182L144.907 270.608Z" fill="#E26E5E"/>
<path d="M143.137 268.667H200.288V294.103H143.137V268.667Z" fill="#D1D1D1"/>
<path d="M146.743 250.547C158.353 251.309 168.335 255.512 168.318 259.88C168.295 264.251 158.273 267.133 146.664 266.372C135.054 265.606 129.771 265.259 129.807 257.349C129.848 249.435 135.131 249.784 146.743 250.547Z" fill="#FFD74B"/>
<path d="M201.64 270.293C197.26 270.293 193.71 266.887 193.71 262.685C193.71 258.483 197.26 255.077 201.64 255.077C206.02 255.077 209.57 258.483 209.57 262.685C209.57 266.887 206.02 270.293 201.64 270.293Z" fill="#FFD74B"/>
</g>
<defs>
<clipPath id="clip0_932_3993">
<rect width="15.3" height="30.2779" fill="white" transform="matrix(-1 0 0 1 214.9 176.8)"/>
</clipPath>
<clipPath id="clip1_932_3993">
<rect width="15.3" height="30.2779" fill="white" transform="matrix(-1 0 0 1 148.6 176.8)"/>
</clipPath>
<clipPath id="clip2_932_3993">
<rect width="328" height="328" fill="white" transform="matrix(-1 0 0 1 328 101)"/>
</clipPath>
</defs>
</svg>
