<svg width="469" height="548" viewBox="0 0 469 548" fill="none" xmlns="http://www.w3.org/2000/svg">
<path d="M161.908 238.702C160.865 259.066 175.711 274.181 196.892 277.463C196.892 277.463 221.086 281.227 246.561 282.532C269.95 283.73 295.99 282.54 295.99 282.54C316.226 281.38 333.713 267.921 334.756 247.557L337.552 192.992C338.595 172.628 322.852 156.182 302.564 154.226C302.564 154.226 279.299 150.512 253.392 149.184C226.165 147.789 203.466 149.149 203.466 149.149C183.362 149.458 165.747 163.772 164.704 184.136L161.908 238.702Z" fill="#FFD74B"/>
<path d="M181.064 229.523C180.133 247.692 193.384 261.177 212.28 264.108C212.28 264.108 233.858 267.465 256.593 268.63C277.462 269.699 300.691 268.637 300.691 268.637C318.745 267.598 334.345 255.592 335.275 237.424L337.769 188.742C338.7 170.574 324.655 155.902 306.556 154.158C306.556 154.158 285.801 150.845 262.688 149.661C238.394 148.416 218.145 149.628 218.145 149.628C200.202 149.9 184.489 162.673 183.558 180.842L181.064 229.523Z" fill="#FFD74B"/>
<path d="M251.788 246.138L257.247 246.418C262.157 246.669 266.353 242.919 266.602 238.059L266.903 232.185C266.964 230.993 266.037 229.976 264.833 229.914C263.629 229.853 262.603 230.769 262.542 231.962L262.241 237.835C262.114 240.315 259.974 242.226 257.47 242.097L252.011 241.818C249.507 241.689 247.574 239.568 247.701 237.091L248.002 231.217C248.063 230.024 247.136 229.008 245.932 228.946C244.728 228.884 243.702 229.801 243.641 230.994L243.34 236.867C243.087 241.728 246.88 245.887 251.788 246.138Z" fill="black"/>
<g clip-path="url(#clip0_933_4827)">
<path d="M302.829 222.794C302.586 227.527 298.549 231.169 293.816 230.927C289.087 230.685 285.447 226.649 285.69 221.916C285.932 217.183 289.965 213.546 294.694 213.788C299.427 214.03 303.071 218.061 302.829 222.794Z" fill="black"/>
</g>
<g clip-path="url(#clip1_933_4827)">
<path d="M226.871 218.903C226.629 223.636 222.592 227.278 217.859 227.036C213.129 226.794 209.49 222.758 209.732 218.025C209.975 213.292 214.007 209.654 218.737 209.897C223.47 210.139 227.114 214.17 226.871 218.903Z" fill="black"/>
</g>
<path d="M254.006 349.274C272.476 356.273 290.19 357.558 292.409 351.704C294.627 345.849 280.514 335.068 262.043 328.068C243.569 321.067 235.158 317.879 231.139 328.484C227.123 339.086 235.533 342.273 254.006 349.274Z" fill="#FFD74B"/>
<path d="M189.118 322.225C188.109 339.167 201.02 353.719 217.967 354.729L241.436 356.128C258.384 357.138 272.936 344.222 273.946 327.281L276.493 303.294C277.503 286.349 262.737 291.035 245.79 290.025L222.321 288.627C205.371 287.616 192.675 281.293 191.665 298.238L189.118 322.225Z" fill="#FFD74B"/>
<path d="M262.53 312.119C277.928 324.488 294.379 331.181 298.301 326.3C302.225 321.417 292.132 306.804 276.73 294.434C261.322 282.064 254.313 276.435 247.212 285.276C240.11 294.117 247.124 299.748 262.53 312.119Z" fill="#FFD74B"/>
<path d="M202.359 314.31C201.447 329.615 212.384 342.718 226.783 343.576L246.732 344.765C261.137 345.624 273.551 333.91 274.463 318.608L276.926 294.477C277.838 279.17 265.257 281.683 250.854 280.824L230.905 279.635C216.504 278.777 205.734 274.874 204.822 290.179L202.359 314.31Z" fill="#E9552E"/>
<path d="M275.781 299.852C271.818 299.852 268.606 296.64 268.606 292.677C268.606 288.715 271.818 285.503 275.781 285.503C279.743 285.503 282.955 288.715 282.955 292.677C282.955 296.64 279.743 299.852 275.781 299.852Z" fill="#FFD74B"/>
<path d="M200.965 298.186C197.002 298.186 193.79 294.974 193.79 291.011C193.79 287.049 197.002 283.837 200.965 283.837C204.927 283.837 208.139 287.049 208.139 291.011C208.139 294.974 204.927 298.186 200.965 298.186Z" fill="#FFD74B"/>
<rect x="361.429" y="307.295" width="13.6512" height="207.801" transform="rotate(77.575 361.429 307.295)" fill="#B37900"/>
<path fill-rule="evenodd" clip-rule="evenodd" d="M185.351 356.074C186.403 355.842 187.068 354.802 186.836 353.75C186.76 353.403 186.595 353.098 186.371 352.853C186.472 352.538 186.493 352.192 186.416 351.845C186.185 350.794 185.144 350.129 184.092 350.36L166.952 354.137C165.9 354.369 165.235 355.409 165.467 356.461C165.543 356.808 165.708 357.113 165.932 357.357C165.831 357.673 165.81 358.019 165.887 358.365C166.118 359.417 167.159 360.082 168.211 359.85L185.351 356.074ZM181.768 348.875C182.82 348.644 183.485 347.603 183.253 346.551C183.021 345.5 181.981 344.835 180.929 345.066L178.881 345.518C179.343 344.934 179.448 344.111 179.084 343.408C178.587 342.452 177.41 342.079 176.454 342.575L164.808 348.618L163.788 348.843C163.213 348.97 162.753 349.339 162.492 349.82L160.875 350.659C159.919 351.155 159.546 352.332 160.042 353.288C160.539 354.244 161.716 354.617 162.672 354.121L166.149 352.317L181.768 348.875ZM186.19 359.883C186.422 360.934 185.757 361.975 184.705 362.207L182.054 362.791C182.443 363.166 182.676 363.7 182.649 364.283C182.601 365.359 181.69 366.192 180.614 366.144L169.172 365.629L167.565 365.983C166.9 366.13 166.24 365.918 165.785 365.477L163.08 365.355C162.004 365.307 161.171 364.395 161.219 363.319C161.268 362.243 162.179 361.41 163.255 361.459L168.834 361.71L183.866 358.398C184.918 358.166 185.958 358.831 186.19 359.883Z" fill="#E69B00"/>
<rect x="172.472" y="342.936" width="23.4021" height="15.6014" rx="7.80071" transform="rotate(77.575 172.472 342.936)" fill="#4C4C4C"/>
<path fill-rule="evenodd" clip-rule="evenodd" d="M136.837 391.529C139.542 391.71 142.317 391.515 145.098 390.902C145.635 390.784 146.166 390.651 146.689 390.505C146.929 390.473 147.169 390.439 147.409 390.405C147.433 390.361 147.457 390.317 147.48 390.273C161.864 385.824 170.669 371.008 167.372 356.041C163.896 340.263 148.288 330.291 132.51 333.767C129.874 334.348 127.4 335.267 125.124 336.469C125.107 336.465 125.09 336.46 125.073 336.455C125.005 336.505 124.937 336.555 124.869 336.606C120.219 339.122 116.41 342.825 113.753 347.23C113.613 347.379 113.474 347.529 113.334 347.678C109.583 351.693 105.656 355.896 101.237 359.506C100.734 359.917 100.224 360.359 99.7047 360.808C95.8533 364.142 91.489 367.92 85.7982 362.908C78.8284 356.769 79.3934 366.015 82.2288 372.203C85.4429 380.125 100.753 393.995 136.837 391.529Z" fill="#E69B00"/>
<path d="M221.117 358.447C239.79 364.885 257.537 365.629 259.577 359.711C261.62 353.786 247.186 343.441 228.511 337.002C209.835 330.562 201.331 327.63 197.634 338.353C193.939 349.075 202.441 352.007 221.117 358.447Z" fill="#FFD74B"/>
<path d="M216.89 325.012C234 334.89 251.275 338.998 254.405 333.576C257.544 328.153 245.338 315.246 228.23 305.367C211.123 295.49 203.336 290.994 197.665 300.816C191.996 310.639 199.784 315.135 216.89 325.012Z" fill="#FFD74B"/>
<defs>
<clipPath id="clip0_933_4827">
<rect width="17.5516" height="34.7337" fill="white" transform="matrix(-0.99869 -0.0511649 -0.0511649 0.99869 303.268 214.227)"/>
</clipPath>
<clipPath id="clip1_933_4827">
<rect width="17.5516" height="34.7337" fill="white" transform="matrix(-0.99869 -0.0511649 -0.0511649 0.99869 227.31 210.336)"/>
</clipPath>
</defs>
</svg>
