<svg width="440" height="580" viewBox="0 0 440 580" fill="none" xmlns="http://www.w3.org/2000/svg">
<path d="M87.0229 231.233C87.0229 251.34 102.406 265.477 123.43 267.64C123.43 267.64 147.446 270.126 172.6 270.126C195.694 270.126 221.279 267.64 221.279 267.64C241.149 265.477 257.69 251.34 257.69 231.233V177.356C257.69 157.249 241.357 141.847 221.279 140.944C221.279 140.944 198.18 138.46 172.6 138.46C145.716 138.46 123.43 140.944 123.43 140.944C103.648 142.263 87.0229 157.249 87.0229 177.356V231.233Z" fill="#FFD74B"/>
<path d="M105.424 221.227C105.424 239.167 119.154 251.779 137.911 253.711C137.911 253.711 159.331 255.929 181.778 255.929C202.384 255.929 225.206 253.711 225.206 253.711C242.934 251.777 257.69 239.167 257.69 221.227V173.16C257.69 155.22 243.119 141.481 225.206 140.676C225.206 140.676 204.6 138.46 181.778 138.46C157.791 138.46 137.911 140.676 137.911 140.676C120.254 141.849 105.424 155.22 105.424 173.16V221.227Z" fill="#FFD74B"/>
<path d="M175.91 234.021H181.301C186.149 234.021 190.092 230.116 190.092 225.317V219.518C190.092 218.34 189.128 217.386 187.939 217.386C186.75 217.386 185.786 218.34 185.786 219.518V225.317C185.786 227.765 183.775 229.755 181.303 229.755H175.913C173.441 229.755 171.43 227.763 171.43 225.317V219.518C171.43 218.34 170.466 217.386 169.277 217.386C168.088 217.386 167.124 218.34 167.124 219.518V225.317C167.12 230.116 171.064 234.021 175.91 234.021Z" fill="black"/>
<g clip-path="url(#clip0_932_3919)">
<path d="M224.998 208.457C224.998 213.13 221.206 216.921 216.533 216.921C211.863 216.921 208.075 213.13 208.075 208.457C208.075 203.784 211.863 199.998 216.533 199.998C221.206 199.998 224.998 203.784 224.998 208.457Z" fill="black"/>
</g>
<g clip-path="url(#clip1_932_3919)">
<path d="M149.998 208.457C149.998 213.13 146.206 216.921 141.533 216.921C136.863 216.921 133.075 213.13 133.075 208.457C133.075 203.784 136.863 199.998 141.533 199.998C146.206 199.998 149.998 203.784 149.998 208.457Z" fill="black"/>
</g>
<path d="M185.41 349.572C195.698 368.993 209.558 383.087 215.713 379.828C221.871 376.565 217.997 357.179 207.71 337.759C197.418 318.331 192.733 309.486 181.581 315.392C170.434 321.297 175.119 330.142 185.41 349.572Z" fill="#FFD74B"/>
<path d="M145.306 348.836C147.647 370.689 155.288 388.922 162.216 388.181C169.152 387.437 172.748 368.001 170.405 346.147C168.063 324.285 166.997 314.335 154.447 315.678C141.898 317.024 142.965 326.974 145.306 348.836Z" fill="#FFD74B"/>
<path d="M120.241 320.347C120.241 339.233 135.544 354.546 154.44 354.546H180.604C199.498 354.546 214.809 339.233 214.809 320.347V291.675C214.809 272.786 199.498 277.243 180.604 277.243H154.44C135.544 277.243 120.241 272.786 120.241 291.675V320.347Z" fill="#FFD74B"/>
<path d="M228.694 304.967C248.919 296.355 264.128 283.736 261.399 277.324C258.67 270.908 239.03 273.131 218.805 281.743C198.573 290.363 189.369 294.282 194.311 305.896C199.253 317.502 208.464 313.581 228.694 304.967Z" fill="#FFD74B"/>
<path d="M129.379 310.677C129.379 327.74 143.213 341.572 160.275 341.572H183.912C200.977 341.572 214.812 327.741 214.812 310.677V283.818C214.812 266.753 200.978 269.324 183.912 269.324H160.275C143.214 269.324 129.379 266.751 129.379 283.818V310.677Z" fill="#E9552E"/>
<path d="M205.417 290.229C205.417 294.639 208.986 298.214 213.402 298.214C217.81 298.214 221.382 294.639 221.382 290.229C221.382 285.816 217.81 282.244 213.402 282.244C208.988 282.244 205.417 285.817 205.417 290.229Z" fill="#FFD74B"/>
<path d="M121.396 282.741C121.396 287.152 124.971 290.728 129.379 290.728C133.793 290.728 137.363 287.152 137.363 282.741C137.363 278.332 133.793 274.755 129.379 274.755C124.971 274.755 121.396 278.332 121.396 282.741Z" fill="#FFD74B"/>
<path d="M251.433 259.083L232.034 242.095L177.506 304.362L196.905 321.35L251.433 259.083Z" fill="#41A2D8"/>
<path d="M236.77 256.242C242.127 260.932 248.686 262.204 251.421 259.081C254.155 255.959 252.029 249.625 246.673 244.934C241.316 240.243 234.757 238.971 232.022 242.094C229.288 245.217 231.414 251.551 236.77 256.242Z" fill="#E9552E"/>
<path d="M182.246 318.506C187.603 323.197 194.162 324.469 196.896 321.347C199.63 318.225 197.504 311.891 192.147 307.2C186.791 302.509 180.232 301.237 177.498 304.359C174.764 307.481 176.89 313.815 182.246 318.506Z" fill="#41A2D8"/>
<path d="M238.726 246.772L248.312 255.23L264.953 236.368L255.367 227.911L238.726 246.772Z" fill="#4C4C4C"/>
<path d="M244.314 255.79L248.32 255.241L239.246 247.236L236.353 248.767L244.314 255.79Z" fill="#4C4C4C"/>
<path d="M234.732 247.344L244.318 255.8L260.956 236.939L251.369 228.483L234.732 247.344Z" fill="#6F6F6F"/>
<path opacity="0.5" d="M254.825 153.043C235.484 174.981 237.578 208.442 259.512 227.788C281.447 247.133 314.911 245.034 334.255 223.1C353.602 201.165 351.5 167.703 329.566 148.361C307.632 129.01 274.17 131.111 254.825 153.043Z" fill="white"/>
<path d="M299.304 245.656C299.301 245.656 299.302 245.656 299.3 245.656C284.401 245.655 270.035 240.223 258.852 230.36C233.558 208.048 231.128 169.311 253.435 144.008C265.046 130.845 281.776 123.296 299.336 123.296C314.236 123.296 328.601 128.731 339.786 138.598C352.041 149.405 359.353 164.339 360.377 180.647C361.4 196.957 356.011 212.688 345.201 224.945C333.594 238.106 316.864 245.656 299.304 245.656ZM299.337 139.743C286.495 139.743 274.259 145.263 265.773 154.886C249.461 173.387 251.236 201.712 269.732 218.024C277.908 225.236 288.41 229.207 299.302 229.208C299.302 229.208 299.304 229.208 299.305 229.208C312.147 229.208 324.381 223.689 332.867 214.066C340.771 205.104 344.711 193.603 343.964 181.677C343.215 169.753 337.868 158.834 328.909 150.933C320.727 143.716 310.228 139.743 299.337 139.743Z" fill="#4C4C4C"/>
<path d="M294.523 249.251C294.52 249.251 294.521 249.251 294.519 249.251C279.62 249.251 265.255 243.819 254.071 233.955C228.776 211.645 226.346 172.907 248.655 147.604C260.265 134.441 276.995 126.893 294.556 126.893C309.456 126.893 323.821 132.328 335.006 142.195C347.26 153.002 354.573 167.936 355.597 184.244C356.62 200.552 351.23 216.284 340.42 228.54C328.814 241.701 312.082 249.251 294.523 249.251ZM294.557 143.339C281.714 143.339 269.479 148.858 260.992 158.482C244.681 176.983 246.456 205.307 264.952 221.619C273.128 228.831 283.63 232.803 294.521 232.803C294.522 232.803 294.523 232.803 294.524 232.803C307.366 232.803 319.6 227.284 328.087 217.659C335.991 208.699 339.931 197.197 339.184 185.273C338.434 173.349 333.088 162.43 324.128 154.528C315.948 147.313 305.448 143.339 294.557 143.339Z" fill="#6F6F6F"/>
<path d="M158.387 303.768C180.698 302.066 199.437 295.381 198.841 288.946C198.258 282.503 178.55 278.755 156.241 280.446C133.928 282.15 123.777 282.921 124.845 294.58C125.919 306.237 136.075 305.464 158.387 303.768Z" fill="#FFD74B"/>
<defs>
<clipPath id="clip0_932_3919">
<rect width="17.3075" height="34.2507" fill="white" transform="matrix(-1 0 0 1 224.998 199.998)"/>
</clipPath>
<clipPath id="clip1_932_3919">
<rect width="17.3075" height="34.2507" fill="white" transform="matrix(-1 0 0 1 149.998 199.998)"/>
</clipPath>
</defs>
</svg>
