<svg width="469" height="548" viewBox="0 0 469 548" fill="none" xmlns="http://www.w3.org/2000/svg">
<path d="M161.907 238.702C160.864 259.066 175.71 274.181 196.891 277.463C196.891 277.463 221.084 281.227 246.559 282.532C269.949 283.73 295.989 282.54 295.989 282.54C316.225 281.38 333.711 267.921 334.755 247.557L337.55 192.991C338.594 172.627 322.85 156.181 302.563 154.225C302.563 154.225 279.298 150.511 253.391 149.184C226.163 147.789 203.464 149.148 203.464 149.148C183.361 149.458 165.746 163.772 164.702 184.136L161.907 238.702Z" fill="#FFD74B"/>
<path d="M181.063 229.523C180.132 247.692 193.382 261.177 212.279 264.108C212.279 264.108 233.857 267.465 256.591 268.629C277.461 269.699 300.689 268.637 300.689 268.637C318.743 267.598 334.343 255.592 335.274 237.423L337.768 188.742C338.699 170.573 324.654 155.902 306.554 154.157C306.554 154.157 285.799 150.844 262.686 149.66C238.393 148.416 218.144 149.628 218.144 149.628C200.2 149.9 184.487 162.673 183.557 180.842L181.063 229.523Z" fill="#FFD74B"/>
<path d="M251.787 246.138L257.246 246.418C262.156 246.669 266.352 242.919 266.601 238.059L266.902 232.185C266.963 230.993 266.037 229.976 264.832 229.914C263.628 229.853 262.602 230.769 262.541 231.962L262.24 237.835C262.113 240.315 259.974 242.226 257.47 242.097L252.011 241.818C249.507 241.689 247.574 239.568 247.701 237.091L248.001 231.217C248.063 230.024 247.136 229.008 245.932 228.946C244.727 228.884 243.702 229.801 243.641 230.994L243.34 236.867C243.087 241.728 246.879 245.887 251.787 246.138Z" fill="black"/>
<g clip-path="url(#clip0_932_4327)">
<path d="M302.829 222.794C302.586 227.527 298.549 231.169 293.816 230.927C289.087 230.685 285.447 226.649 285.69 221.916C285.932 217.183 289.965 213.546 294.694 213.788C299.427 214.03 303.071 218.061 302.829 222.794Z" fill="black"/>
</g>
<g clip-path="url(#clip1_932_4327)">
<path d="M226.871 218.903C226.628 223.636 222.591 227.278 217.858 227.036C213.129 226.794 209.489 222.758 209.732 218.025C209.974 213.292 214.007 209.654 218.736 209.897C223.469 210.139 227.113 214.17 226.871 218.903Z" fill="black"/>
</g>
<path d="M254.008 349.273C272.477 356.273 290.191 357.558 292.41 351.703C294.629 345.849 280.516 335.068 262.044 328.068C243.57 321.067 235.159 317.879 231.14 328.484C227.125 339.085 235.534 342.272 254.008 349.273Z" fill="#FFD74B"/>
<path d="M189.119 322.225C188.109 339.167 201.02 353.719 217.968 354.729L241.437 356.128C258.384 357.138 272.937 344.222 273.947 327.281L276.494 303.294C277.504 286.349 262.738 291.035 245.79 290.025L222.321 288.627C205.372 287.616 192.676 281.293 191.666 298.238L189.119 322.225Z" fill="#FFD74B"/>
<path d="M262.531 312.119C277.928 324.488 294.38 331.181 298.301 326.3C302.225 321.417 292.132 306.804 276.731 294.434C261.323 282.064 254.314 276.435 247.212 285.276C240.111 294.117 247.125 299.748 262.531 312.119Z" fill="#FFD74B"/>
<path d="M202.359 314.31C201.447 329.615 212.384 342.718 226.783 343.576L246.732 344.765C261.137 345.624 273.551 333.91 274.463 318.608L276.925 294.477C277.838 279.17 265.257 281.683 250.854 280.824L230.905 279.635C216.504 278.777 205.734 274.874 204.821 290.179L202.359 314.31Z" fill="#E9552E"/>
<path d="M275.781 299.852C271.818 299.852 268.606 296.64 268.606 292.677C268.606 288.715 271.818 285.503 275.781 285.503C279.743 285.503 282.955 288.715 282.955 292.677C282.955 296.64 279.743 299.852 275.781 299.852Z" fill="#FFD74B"/>
<path d="M200.966 298.186C197.004 298.186 193.792 294.974 193.792 291.011C193.792 287.049 197.004 283.837 200.966 283.837C204.928 283.837 208.141 287.049 208.141 291.011C208.141 294.974 204.928 298.186 200.966 298.186Z" fill="#FFD74B"/>
<rect x="361.429" y="307.295" width="13.6512" height="207.801" transform="rotate(77.575 361.429 307.295)" fill="#B37900"/>
<path fill-rule="evenodd" clip-rule="evenodd" d="M186.372 352.854C186.472 352.538 186.493 352.192 186.417 351.845C186.185 350.793 185.144 350.128 184.093 350.36L166.952 354.137C165.9 354.368 165.235 355.409 165.467 356.461C165.543 356.807 165.708 357.112 165.931 357.356C165.831 357.672 165.81 358.018 165.886 358.365C166.118 359.417 167.158 360.082 168.21 359.85L185.351 356.074C186.403 355.842 187.067 354.801 186.836 353.749C186.759 353.403 186.595 353.098 186.372 352.854ZM181.768 348.875C182.82 348.643 183.485 347.603 183.253 346.551C183.022 345.499 181.981 344.834 180.929 345.066L178.882 345.517C179.343 344.934 179.449 344.111 179.084 343.407C178.588 342.451 177.411 342.079 176.455 342.575L164.808 348.618L163.789 348.843C163.213 348.969 162.753 349.339 162.493 349.819L160.876 350.659C159.92 351.155 159.547 352.332 160.043 353.288C160.539 354.244 161.716 354.617 162.672 354.121L166.149 352.316L181.768 348.875ZM186.19 359.882C186.422 360.934 185.757 361.975 184.705 362.206L182.053 362.791C182.442 363.166 182.675 363.7 182.648 364.283C182.6 365.359 181.688 366.192 180.613 366.143L169.172 365.629L167.565 365.983C166.9 366.129 166.24 365.918 165.785 365.476L163.079 365.355C162.003 365.306 161.17 364.395 161.218 363.319C161.266 362.243 162.178 361.41 163.254 361.458L168.834 361.709L183.866 358.397C184.918 358.166 185.958 358.831 186.19 359.882Z" fill="#E69B00"/>
<rect x="172.473" y="342.936" width="23.4021" height="15.6014" rx="7.80071" transform="rotate(77.575 172.473 342.936)" fill="#4C4C4C"/>
<path fill-rule="evenodd" clip-rule="evenodd" d="M136.839 391.529C139.544 391.71 142.319 391.515 145.1 390.902C145.637 390.784 146.167 390.651 146.69 390.505C146.93 390.472 147.17 390.439 147.411 390.405C147.435 390.361 147.458 390.317 147.482 390.273C161.865 385.823 170.671 371.008 167.373 356.04C163.897 340.263 148.289 330.291 132.512 333.767C129.876 334.348 127.402 335.267 125.126 336.469C125.109 336.465 125.092 336.46 125.075 336.455C125.007 336.505 124.939 336.555 124.872 336.605C120.221 339.121 116.411 342.824 113.754 347.23C113.615 347.379 113.475 347.529 113.335 347.678C109.584 351.693 105.658 355.896 101.239 359.506C100.736 359.917 100.226 360.359 99.7064 360.808C95.855 364.142 91.4907 367.92 85.7998 362.908C78.83 356.769 79.3951 366.015 82.2304 372.203C85.4446 380.125 100.754 393.995 136.839 391.529Z" fill="#E69B00"/>
<path d="M221.118 358.447C239.791 364.885 257.538 365.629 259.578 359.711C261.621 353.786 247.187 343.441 228.512 337.002C209.836 330.562 201.332 327.63 197.635 338.353C193.94 349.075 202.441 352.007 221.118 358.447Z" fill="#FFD74B"/>
<path d="M216.89 325.012C234 334.89 251.275 338.998 254.405 333.576C257.544 328.153 245.338 315.246 228.23 305.367C211.123 295.489 203.336 290.994 197.665 300.816C191.996 310.639 199.784 315.135 216.89 325.012Z" fill="#FFD74B"/>
<defs>
<clipPath id="clip0_932_4327">
<rect width="17.5516" height="34.7337" fill="white" transform="matrix(-0.99869 -0.0511649 -0.0511649 0.99869 303.268 214.227)"/>
</clipPath>
<clipPath id="clip1_932_4327">
<rect width="17.5516" height="34.7337" fill="white" transform="matrix(-0.99869 -0.0511649 -0.0511649 0.99869 227.31 210.336)"/>
</clipPath>
</defs>
</svg>
