<svg width="369" height="339" viewBox="0 0 369 339" fill="none" xmlns="http://www.w3.org/2000/svg">
<path d="M161.621 206.134C161.621 222.842 165.914 237.236 171.211 237.236C176.506 237.236 180.804 222.843 180.804 206.134C180.804 189.424 180.804 181.817 171.211 181.817C161.621 181.817 161.621 189.425 161.621 206.134Z" fill="#E9552E"/>
<path d="M138.825 206.134C138.825 222.842 143.121 237.236 148.416 237.236C153.715 237.236 158.008 222.843 158.008 206.134C158.008 189.424 158.008 181.817 148.416 181.817C138.825 181.817 138.825 189.425 138.825 206.134Z" fill="#E9552E"/>
<path d="M123.877 188.111C123.877 202.465 135.515 214.103 149.871 214.103H169.758C184.114 214.103 195.75 202.465 195.75 188.111V166.605C195.75 152.249 184.114 154.747 169.758 154.747H149.871C135.515 154.747 123.877 152.249 123.877 166.605V188.111Z" fill="#E9552E"/>
<path fill-rule="evenodd" clip-rule="evenodd" d="M116.632 166.048C98.6622 164.191 85.5168 152.063 85.5168 134.818V133.029L52.0911 145.184L160.98 184.78L269.868 145.184L231.361 131.182V134.818C231.361 152.063 217.227 164.191 200.247 166.048C200.247 166.048 178.383 168.178 158.647 168.178C137.149 168.178 116.632 166.048 116.632 166.048Z" fill="#B37900"/>
<path d="M130.823 180.761C130.823 193.729 141.333 204.244 154.306 204.244H172.269C185.239 204.244 195.751 193.73 195.751 180.761V155.881C195.751 142.914 185.24 144.06 172.269 144.06H154.306C141.334 144.06 130.823 142.913 130.823 155.881V180.761Z" fill="#FFD74B"/>
<path d="M195.751 167.009C192.399 167.009 189.682 164.292 189.682 160.94C189.682 157.588 192.399 154.871 195.751 154.871C199.103 154.871 201.82 157.588 201.82 160.94C201.82 164.292 199.103 167.009 195.751 167.009Z" fill="#E9552E"/>
<path d="M130.822 165.599C127.47 165.599 124.753 162.882 124.753 159.53C124.753 156.178 127.47 153.461 130.822 153.461C134.174 153.461 136.891 156.178 136.891 159.53C136.891 162.882 134.174 165.599 130.822 165.599Z" fill="#E9552E"/>
<path d="M160.979 185.049V301.917L259.382 265.893L269.868 145.184L160.979 185.049Z" fill="#E69B00"/>
<path d="M52.091 145.184L62.5852 265.893L160.979 301.917V185.049L52.091 145.184Z" fill="#FFB51A"/>
<path d="M160.979 184.832L270.467 145.184L296.265 181.427L186.778 221.076L160.979 184.832Z" fill="#FFB51A"/>
<path d="M25.6937 181.427L135.181 221.076L160.979 184.832L51.4919 145.184L25.6937 181.427Z" fill="#FFC54B"/>
<path d="M201.128 179.069C195.216 179.069 190.423 174.695 190.423 169.3C190.423 163.905 195.216 159.531 201.128 159.531C207.041 159.531 211.834 163.905 211.834 169.3C211.834 174.695 207.041 179.069 201.128 179.069Z" fill="#FFD74B"/>
<path d="M128.119 181.553C122.206 181.553 117.413 177.179 117.413 171.784C117.413 166.389 122.206 162.015 128.119 162.015C134.031 162.015 138.824 166.389 138.824 171.784C138.824 177.179 134.031 181.553 128.119 181.553Z" fill="#FFD74B"/>
<path d="M91.6865 115.306C91.6865 132.606 104.921 144.769 123.009 146.631C123.009 146.631 143.67 148.769 165.313 148.769C185.182 148.769 207.195 146.631 207.195 146.631C224.288 144.769 238.521 132.606 238.521 115.306V68.9543C238.521 51.6552 224.468 38.4034 207.195 37.6292C207.195 37.6292 187.319 35.4912 165.313 35.4912C142.181 35.4912 123.009 37.6292 123.009 37.6292C105.99 38.761 91.6865 51.6542 91.6865 68.9543V115.306Z" fill="#FFD74B"/>
<path d="M107.519 106.7C107.519 122.135 119.326 132.984 135.467 134.648C135.467 134.648 153.893 136.558 173.207 136.558C190.936 136.558 210.569 134.648 210.569 134.648C225.822 132.983 238.519 122.135 238.519 106.7V65.3431C238.519 49.9114 225.982 38.0898 210.569 37.3983C210.569 37.3983 192.839 35.4912 173.207 35.4912C152.569 35.4912 135.467 37.3983 135.467 37.3983C120.274 38.4077 107.519 49.9114 107.519 65.3431V106.7Z" fill="#FFD74B"/>
<path d="M173.535 118.273H168.91C164.752 118.273 161.371 114.891 161.371 110.734V105.708C161.371 104.688 162.197 103.86 163.218 103.86C164.238 103.86 165.065 104.688 165.065 105.708V110.734C165.065 112.855 166.789 114.578 168.91 114.578H173.535C175.657 114.578 177.382 112.855 177.382 110.734V105.708C177.382 104.688 178.209 103.86 179.229 103.86C180.249 103.86 181.076 104.688 181.076 105.708V110.734C181.076 114.889 177.694 118.273 173.535 118.273Z" fill="black"/>
<path d="M203.99 74.0012C193.852 74.0012 185.337 80.9853 182.941 90.3875H159.377C156.982 80.9853 148.466 74.0012 138.329 74.0012C126.338 74.0012 116.584 83.7557 116.584 95.7458C116.584 107.736 126.338 117.49 138.329 117.49C150.319 117.49 160.073 107.736 160.073 95.7458C160.073 95.3872 160.037 95.0371 160.019 94.6828H182.3C182.283 95.0371 182.246 95.3872 182.246 95.7458C182.246 107.736 192.001 117.49 203.991 117.49C215.981 117.49 225.735 107.736 225.735 95.7458C225.735 83.7557 215.98 74.0012 203.99 74.0012ZM138.329 113.195C128.707 113.195 120.879 105.367 120.879 95.7458C120.879 86.1245 128.707 78.2965 138.329 78.2965C147.95 78.2965 155.778 86.1245 155.778 95.7458C155.778 105.367 147.95 113.195 138.329 113.195ZM203.99 113.195C194.368 113.195 186.54 105.367 186.54 95.7458C186.54 86.1245 194.368 78.2965 203.99 78.2965C213.611 78.2965 221.439 86.1245 221.439 95.7458C221.439 105.367 213.611 113.195 203.99 113.195Z" fill="black"/>
<path opacity="0.3" d="M203.99 115.343C214.813 115.343 223.587 106.569 223.587 95.7459C223.587 84.9228 214.813 76.1489 203.99 76.1489C193.166 76.1489 184.393 84.9228 184.393 95.7459C184.393 106.569 193.166 115.343 203.99 115.343Z" fill="black"/>
<path opacity="0.3" d="M138.083 115.343C148.906 115.343 157.68 106.569 157.68 95.7459C157.68 84.9228 148.906 76.1489 138.083 76.1489C127.26 76.1489 118.486 84.9228 118.486 95.7459C118.486 106.569 127.26 115.343 138.083 115.343Z" fill="black"/>
<path opacity="0.5" fill-rule="evenodd" clip-rule="evenodd" d="M197.926 77.1049C199.156 76.7053 200.439 76.4239 201.762 76.2742L223.461 97.9735C223.312 99.2964 223.03 100.579 222.631 101.809L197.926 77.1049ZM214.116 112.527C216.981 110.795 219.366 108.35 221.026 105.438L194.298 78.7093C191.386 80.3694 188.941 82.7546 187.209 85.6191L214.116 112.527Z" fill="#030303"/>
<path opacity="0.5" fill-rule="evenodd" clip-rule="evenodd" d="M133.284 76.8044C134.582 76.4597 135.932 76.2447 137.32 76.1743L157.901 96.7547C157.83 98.1432 157.616 99.4936 157.271 100.791L133.284 76.8044ZM149.261 112.013C152.036 110.144 154.307 107.584 155.827 104.58L129.495 78.2482C126.491 79.7681 123.931 82.0392 122.062 84.8144L149.261 112.013Z" fill="#030303"/>
</svg>
