<svg width="392" height="339" viewBox="0 0 392 339" fill="none" xmlns="http://www.w3.org/2000/svg">
<path d="M67.0836 144.349C67.0836 165.597 83.3392 180.536 105.556 182.822C105.556 182.822 130.934 185.449 157.515 185.449C181.919 185.449 208.955 182.822 208.955 182.822C229.952 180.536 247.432 165.597 247.432 144.349V87.416C247.432 66.1683 230.172 49.8929 208.955 48.9389C208.955 48.9389 184.546 46.3142 157.515 46.3142C129.106 46.3142 105.556 48.9389 105.556 48.9389C84.6515 50.3325 67.0836 66.1683 67.0836 87.416V144.349Z" fill="#FFD74B"/>
<path d="M86.5287 133.776C86.5287 152.733 101.037 166.061 120.858 168.103C120.858 168.103 143.493 170.446 167.213 170.446C188.989 170.446 213.105 168.103 213.105 168.103C231.838 166.059 247.432 152.733 247.432 133.776V82.9823C247.432 64.0251 232.034 49.506 213.105 48.6553C213.105 48.6553 191.33 46.3142 167.213 46.3142C141.866 46.3142 120.858 48.6553 120.858 48.6553C102.2 49.8951 86.5287 64.0251 86.5287 82.9823V133.776Z" fill="#FFD74B"/>
<path d="M161.014 147.296H166.71C171.833 147.296 176 143.17 176 138.098V131.97C176 130.726 174.981 129.717 173.725 129.717C172.468 129.717 171.45 130.726 171.45 131.97V138.098C171.45 140.685 169.325 142.788 166.712 142.788H161.016C158.404 142.788 156.279 140.683 156.279 138.098V131.97C156.279 130.726 155.26 129.717 154.004 129.717C152.747 129.717 151.729 130.726 151.729 131.97V138.098C151.724 143.17 155.893 147.296 161.014 147.296Z" fill="black"/>
<g clip-path="url(#clip0_933_4672)">
<path d="M212.886 120.282C212.886 125.22 208.879 129.226 203.94 129.226C199.006 129.226 195.003 125.22 195.003 120.282C195.003 115.343 199.006 111.343 203.94 111.343C208.879 111.343 212.886 115.343 212.886 120.282Z" fill="black"/>
</g>
<g clip-path="url(#clip1_933_4672)">
<path d="M133.632 120.282C133.632 125.22 129.625 129.226 124.686 129.226C119.752 129.226 115.749 125.22 115.749 120.282C115.749 115.343 119.752 111.343 124.686 111.343C129.625 111.343 133.632 115.343 133.632 120.282Z" fill="black"/>
</g>
<path d="M33.4845 149.805L26.4118 139.149L23.7534 145.35L30.8239 156.008L33.4845 149.805Z" fill="#9E9E9E"/>
<path d="M22.9866 156.773L15.9116 146.112L22.6598 146.075L29.7326 156.735L22.9866 156.773Z" fill="#9E9E9E"/>
<path d="M85.6319 236.855L20.3452 138.47L17.6599 140.252L82.9465 238.637L85.6319 236.855Z" fill="#815600"/>
<path d="M96.0347 239.654L86.8815 236.042L81.7047 239.476L81.478 249.312L102.392 265.024L96.0347 239.654Z" fill="#9E9E9E"/>
<path d="M93.6629 240.972L89.3975 243.804L98.3173 257.249L93.6629 240.972Z" fill="#DDDDDD"/>
<path d="M59.1512 136.897L53.5454 125.401L50.0913 131.196L55.7015 142.694L59.1512 136.897Z" fill="#9E9E9E"/>
<path d="M47.8287 142.419L42.2207 130.923L48.9156 131.769L54.5235 143.268L47.8287 142.419Z" fill="#9E9E9E"/>
<path d="M59.4599 147.921L47.6004 123.932L44.7036 125.345L59.4599 155.034L59.4599 147.921Z" fill="#815600"/>
<path d="M109.332 234.197L100.73 229.407L95.1507 232.13L93.6304 241.859L112.29 260.179L109.332 234.197Z" fill="#9E9E9E"/>
<path d="M106.805 235.191L102.204 237.436L109.276 251.935L106.805 235.191Z" fill="#DDDDDD"/>
<path fill-rule="evenodd" clip-rule="evenodd" d="M66.8929 193.855C61.8596 187.606 58.9539 179.751 58.9539 170.767V169.323C46.5175 177.219 39.2768 187.622 42.5562 193.406C45.438 198.489 55.5514 198.433 66.8929 193.855Z" fill="#E69B00"/>
<path d="M157.237 261.476C159.518 282.162 166.799 299.399 173.359 298.675C179.918 297.952 183.269 279.545 180.987 258.857C178.705 238.167 177.666 228.746 165.791 230.056C153.916 231.365 154.955 240.784 157.237 261.476Z" fill="#FFD74B"/>
<path d="M127.506 259.347C126.107 280.112 130.246 298.362 136.826 298.805C143.415 299.249 149.956 281.721 151.356 260.954C152.755 240.186 153.392 230.729 141.468 229.926C129.543 229.122 128.906 238.576 127.506 259.347Z" fill="#FFD74B"/>
<path d="M38.571 132.976L32.3541 121.798L29.2178 127.77L35.4347 138.953L38.571 132.976Z" fill="#9E9E9E"/>
<path d="M27.5622 139.1L21.3452 127.917L28.0756 128.406L34.2904 139.586L27.5622 139.1Z" fill="#9E9E9E"/>
<path d="M83.7278 223.851L26.3525 120.649L23.5376 122.214L80.9129 225.416L83.7278 223.851Z" fill="#815600"/>
<path d="M93.8893 227.451L85.0494 223.125L79.6193 226.148L78.6235 235.942L98.2347 253.237L93.8893 227.451Z" fill="#9E9E9E"/>
<path d="M91.4209 228.573L86.9443 231.063L94.7861 245.166L91.4209 228.573Z" fill="#DDDDDD"/>
<path d="M106.543 237.687C106.543 255.569 121.038 270.063 138.924 270.063H163.699C181.585 270.063 196.08 255.569 196.08 237.687V210.918C196.08 193.034 181.585 194.701 163.699 194.701H138.924C121.038 194.701 106.543 193.034 106.543 210.918V237.687Z" fill="#FFD74B"/>
<path fill-rule="evenodd" clip-rule="evenodd" d="M66.3779 193.2C73.2164 202.102 84.2774 207.887 97.4266 209.24C97.4266 209.24 100.873 209.596 106.555 210.047C106.547 210.332 106.543 210.622 106.543 210.918V237.687C106.543 246.72 110.242 254.888 116.208 260.761L90.7776 275.946L42.3422 193.338C45.3833 198.218 55.3496 197.966 66.3779 193.2ZM42.3422 193.338C42.2874 193.25 42.2348 193.16 42.1846 193.069L42.3422 193.338Z" fill="#B37900"/>
<path fill-rule="evenodd" clip-rule="evenodd" d="M108.706 249.345C111.949 257.747 118.597 264.456 126.959 267.782C125.149 269.13 123.193 270.428 121.113 271.646C107.466 279.632 93.6515 281.099 90.2583 274.921C86.8751 268.762 95.1293 257.329 108.706 249.345Z" fill="#B37900"/>
<path d="M115.199 228.532C115.199 244.686 128.293 257.783 144.45 257.783H166.829C182.984 257.783 196.08 244.684 196.08 228.532V195.677C196.08 179.517 182.981 182.589 166.829 182.589H144.45C128.291 182.589 115.199 179.52 115.199 195.677L115.199 228.532Z" fill="#E9552E"/>
<path d="M196.584 209.305C200.758 209.305 204.141 205.921 204.141 201.748C204.141 197.574 200.758 194.19 196.584 194.19C192.41 194.19 189.027 197.574 189.027 201.748C189.027 205.921 192.41 209.305 196.584 209.305Z" fill="#FFD74B"/>
<path d="M115.704 211.21C119.879 211.21 123.263 207.826 123.263 203.651C123.263 199.476 119.879 196.091 115.704 196.091C111.529 196.091 108.144 199.476 108.144 203.651C108.144 207.826 111.529 211.21 115.704 211.21Z" fill="#FFD74B"/>
<path d="M150.131 295.802L114.043 185.717L114.123 185.402L150.111 46.4497L152.265 47.0098L116.357 185.644L152.245 295.113L150.131 295.802Z" fill="#9E9E9E"/>
<path d="M221.491 201.481C238.61 193.575 251.282 181.845 248.732 175.78C246.178 169.714 229.359 171.607 212.244 179.514C195.129 187.424 187.336 191.019 191.959 202.001C196.583 212.984 204.367 209.392 221.491 201.481Z" fill="#FFD74B"/>
<path d="M257.221 201.541C252.366 167.346 254.305 168.575 256.803 135.099C259.468 105.41 252.931 77.2967 222.862 63.4713C199.428 52.6955 168.011 57.2144 149.498 38.1855C142.599 63.967 211.239 59.8305 231.546 77.0989C261.471 102.351 237.192 136.813 236.883 167.242C236.647 190.409 248.783 211.001 244.871 234.935C235.027 281.704 180.07 272.119 149.509 283.9C149.549 283.7 149.589 298.93 149.558 298.825C168.567 279.294 199.71 285.444 223.473 274.466C252.597 261.012 261.6 230.623 257.221 201.541C258.137 207.629 256.358 195.468 257.221 201.541ZM250.875 167.757C250.875 167.795 250.87 167.562 250.875 167.757V167.757Z" fill="#E69B00"/>
<path d="M251.132 186.615C255.79 186.615 259.565 182.273 259.565 176.918C259.565 171.562 255.79 167.22 251.132 167.22C246.475 167.22 242.699 171.562 242.699 176.918C242.699 182.273 246.475 186.615 251.132 186.615Z" fill="#FFD74B"/>
<path d="M136.998 174.017L120.572 176.526L126.427 183.048L142.853 180.543L136.998 174.017Z" fill="#9E9E9E"/>
<path d="M139.465 190.198L123.039 192.703L126.682 184.728L143.108 182.223L139.465 190.198Z" fill="#9E9E9E"/>
<path d="M268.118 160.174L116.485 183.319L117.116 187.457L268.75 164.311L268.118 160.174Z" fill="#815600"/>
<path d="M277.066 149.436L267.801 158.249L269.017 166.222L280.491 171.87L310.429 155.821L277.066 149.436Z" fill="#9E9E9E"/>
<path d="M277.319 152.954L278.324 159.524L299.042 156.366L277.319 152.954Z" fill="#DDDDDD"/>
<path d="M89.0134 186C105.47 179.063 121.708 177.96 124.237 183.968C126.773 189.976 114.641 200.821 98.1799 207.758C81.7184 214.691 74.2278 217.851 69.6445 206.971C65.0568 196.093 72.5518 192.937 89.0134 186Z" fill="#FFD74B"/>
<path d="M93.2074 184.168C105.893 178.82 118.411 177.969 120.36 182.601C122.314 187.233 112.963 195.591 100.278 200.938C87.5861 206.282 81.8115 208.718 78.2796 200.336C74.7432 191.947 80.5201 189.511 93.2074 184.168Z" fill="#E9552E"/>
<defs>
<clipPath id="clip0_933_4672">
<rect width="18.2893" height="36.1935" fill="white" transform="matrix(-1 0 0 1 212.886 111.343)"/>
</clipPath>
<clipPath id="clip1_933_4672">
<rect width="18.2893" height="36.1935" fill="white" transform="matrix(-1 0 0 1 133.632 111.343)"/>
</clipPath>
</defs>
</svg>
