<svg width="362" height="339" viewBox="0 0 362 339" fill="none" xmlns="http://www.w3.org/2000/svg">
<path d="M93.657 190.242C93.657 207.323 106.725 219.333 124.586 221.171C124.586 221.171 144.989 223.283 166.357 223.283C185.977 223.283 207.712 221.171 207.712 221.171C224.592 219.333 238.645 207.323 238.645 190.242V144.471C238.645 127.39 224.769 114.305 207.712 113.538C207.712 113.538 188.089 111.428 166.357 111.428C143.518 111.428 124.586 113.538 124.586 113.538C107.78 114.659 93.657 127.39 93.657 144.471V190.242Z" fill="#FFD74B"/>
<path d="M109.29 181.742C109.29 196.982 120.953 207.696 136.888 209.338C136.888 209.338 155.085 211.222 174.154 211.222C191.66 211.222 211.048 209.338 211.048 209.338C226.108 207.695 238.645 196.982 238.645 181.742V140.907C238.645 125.667 226.265 113.994 211.048 113.311C211.048 113.311 193.542 111.428 174.154 111.428C153.777 111.428 136.888 113.311 136.888 113.311C121.888 114.307 109.29 125.667 109.29 140.907V181.742Z" fill="#FFD74B"/>
<path d="M169.171 192.611H173.751C177.869 192.611 181.219 189.294 181.219 185.216V180.29C181.219 179.289 180.4 178.479 179.39 178.479C178.38 178.479 177.561 179.289 177.561 180.29V185.216C177.561 187.296 175.853 188.987 173.752 188.987H169.173C167.073 188.987 165.365 187.295 165.365 185.216V180.29C165.365 179.289 164.546 178.479 163.536 178.479C162.525 178.479 161.707 179.289 161.707 180.29V185.216C161.703 189.294 165.054 192.611 169.171 192.611Z" fill="black"/>
<g clip-path="url(#clip0_930_3608)">
<path d="M210.871 170.893C210.871 174.863 207.65 178.084 203.68 178.084C199.713 178.084 196.495 174.863 196.495 170.893C196.495 166.923 199.713 163.707 203.68 163.707C207.65 163.707 210.871 166.923 210.871 170.893Z" fill="black"/>
</g>
<g clip-path="url(#clip1_930_3608)">
<path d="M147.156 170.893C147.156 174.863 143.935 178.084 139.965 178.084C135.998 178.084 132.78 174.863 132.78 170.893C132.78 166.923 135.998 163.707 139.965 163.707C143.935 163.707 147.156 166.923 147.156 170.893Z" fill="black"/>
</g>
<path d="M167.854 260.877C167.854 277.423 172.106 291.681 177.351 291.681C182.596 291.681 186.852 277.425 186.852 260.877C186.852 244.327 186.852 236.792 177.351 236.792C167.854 236.793 167.854 244.327 167.854 260.877Z" fill="#FFD74B"/>
<path d="M145.275 260.877C145.275 277.423 149.532 291.681 154.775 291.681C160.026 291.681 164.277 277.425 164.277 260.877C164.277 244.327 164.277 236.792 154.775 236.792C145.275 236.793 145.275 244.327 145.275 260.877Z" fill="#FFD74B"/>
<path d="M130.472 243.026C130.472 257.243 141.994 268.769 156.217 268.769H175.912C190.135 268.769 201.66 257.243 201.66 243.026V223.337C201.66 209.116 190.135 209.127 175.912 209.127H156.217C141.993 209.127 130.472 209.116 130.472 223.337V243.026Z" fill="#FFD74B"/>
<path d="M200.869 239.688C217.354 238.276 231.194 232.815 230.747 227.589C230.3 222.36 215.731 219.344 199.244 220.757C182.752 222.175 175.249 222.818 176.06 232.283C176.871 241.748 184.378 241.103 200.869 239.688Z" fill="#FFD74B"/>
<path d="M132.17 221.482C115.864 218.648 101.092 220.399 100.195 225.566C99.2899 230.737 112.613 237.367 128.917 240.204C145.221 243.038 152.641 244.328 154.269 234.968C155.895 225.607 148.473 224.317 132.17 221.482Z" fill="#FFD74B"/>
<path d="M137.352 235.747C137.352 248.591 147.766 259.003 160.608 259.003H178.4C191.248 259.003 201.66 248.589 201.66 235.747V215.985C201.66 203.14 191.246 204.264 178.4 204.264H160.608C147.764 204.264 137.352 203.141 137.352 215.985V235.747Z" fill="#FFD74B"/>
<path d="M199.854 221.279C203.185 221.279 205.885 218.579 205.885 215.248C205.885 211.918 203.185 209.218 199.854 209.218C196.524 209.218 193.824 211.918 193.824 215.248C193.824 218.579 196.524 221.279 199.854 221.279Z" fill="#FFD74B"/>
<path d="M135.313 219.881C138.645 219.881 141.345 217.18 141.345 213.849C141.345 210.518 138.645 207.817 135.313 207.817C131.982 207.817 129.281 210.518 129.281 213.849C129.281 217.18 131.982 219.881 135.313 219.881Z" fill="#FFD74B"/>
<path d="M170.207 123.319C119.437 118.7 78.8725 108.443 79.6033 100.409C80.3342 92.3756 122.084 89.607 172.854 94.2257C223.624 98.8444 264.189 109.101 263.458 117.135C262.727 125.169 220.977 127.938 170.207 123.319Z" fill="#4E3400"/>
<path d="M225.822 109.756C224.338 109.982 218.611 95.6193 218.156 94.4985C216.119 89.4511 214.487 84.008 213.503 78.7126C212.227 71.8684 214.576 63.8732 206.255 60.1984C197.692 56.4195 187.936 57.7201 179.311 60.2495C167.141 63.8183 159.916 59.7099 148.411 55.4577C141.834 53.0286 133.865 54.3331 128.533 58.7273C122.024 64.0928 119.497 72.5386 116.506 79.8125C112.626 89.2599 109.688 93.5159 111.719 97.399C111.719 97.4028 136.089 123.382 225.822 109.756Z" fill="#B37900"/>
<path d="M111.043 90.699C121.395 92.6926 124.799 94.37 138.18 99.1883L146.916 102.935C146.916 102.935 182.363 118.352 226.9 125.569C226.9 125.569 136.454 126.213 108.689 121.786C88.598 119.959 72.9994 110.881 73.8533 101.508C74.7033 92.136 91.241 86.8859 111.043 90.699Z" fill="#815600"/>
<defs>
<clipPath id="clip0_930_3608">
<rect width="14.7033" height="29.097" fill="white" transform="matrix(-1 0 0 1 210.871 163.707)"/>
</clipPath>
<clipPath id="clip1_930_3608">
<rect width="14.7033" height="29.097" fill="white" transform="matrix(-1 0 0 1 147.156 163.707)"/>
</clipPath>
</defs>
</svg>
