<svg width="41" height="41" viewBox="0 0 41 41" fill="none" xmlns="http://www.w3.org/2000/svg">
<path d="M20.5003 38.8644C10.3699 38.8644 2.13574 30.6303 2.13574 20.4998C2.13574 10.3694 10.3699 2.13525 20.5003 2.13525C30.6307 2.13525 38.8649 10.3694 38.8649 20.4998C38.8649 30.6303 30.6307 38.8644 20.5003 38.8644ZM20.5003 4.69775C11.7878 4.69775 4.69824 11.7873 4.69824 20.4998C4.69824 29.2123 11.7878 36.3019 20.5003 36.3019C29.2128 36.3019 36.3024 29.2123 36.3024 20.4998C36.3024 11.7873 29.2128 4.69775 20.5003 4.69775Z" fill="white"/>
<path d="M20.5 23.4894C19.7996 23.4894 19.2188 22.9086 19.2188 22.2082V13.6665C19.2188 12.9661 19.7996 12.3853 20.5 12.3853C21.2004 12.3853 21.7813 12.9661 21.7813 13.6665V22.2082C21.7813 22.9086 21.2004 23.4894 20.5 23.4894Z" fill="white"/>
<path d="M20.5003 29.0414C20.2782 29.0414 20.0562 28.9902 19.8512 28.9048C19.6462 28.8193 19.4582 28.6998 19.2874 28.546C19.1337 28.3752 19.0141 28.2043 18.9287 27.9823C18.8432 27.7773 18.792 27.5552 18.792 27.3331C18.792 27.111 18.8432 26.8889 18.9287 26.6839C19.0141 26.4789 19.1337 26.291 19.2874 26.1202C19.4582 25.9664 19.6462 25.8468 19.8512 25.7614C20.2612 25.5906 20.7395 25.5906 21.1495 25.7614C21.3545 25.8468 21.5424 25.9664 21.7132 26.1202C21.867 26.291 21.9866 26.4789 22.072 26.6839C22.1574 26.8889 22.2087 27.111 22.2087 27.3331C22.2087 27.5552 22.1574 27.7773 22.072 27.9823C21.9866 28.2043 21.867 28.3752 21.7132 28.546C21.5424 28.6998 21.3545 28.8193 21.1495 28.9048C20.9445 28.9902 20.7224 29.0414 20.5003 29.0414Z" fill="white"/>
</svg>
