<svg width="417" height="484" viewBox="0 0 417 484" fill="none" xmlns="http://www.w3.org/2000/svg">
<path d="M122.063 208.921C122.063 227.088 135.962 239.861 154.958 241.815C154.958 241.815 176.656 244.061 199.383 244.061C220.249 244.061 243.364 241.815 243.364 241.815C261.317 239.861 276.263 227.088 276.263 208.921V160.243C276.263 142.076 261.505 128.16 243.364 127.344C243.364 127.344 222.495 125.1 199.383 125.1C175.092 125.1 154.958 127.344 154.958 127.344C137.084 128.536 122.063 142.076 122.063 160.243V208.921Z" fill="#FFD74B"/>
<path d="M138.689 199.881C138.689 216.089 151.093 227.484 168.041 229.23C168.041 229.23 187.394 231.234 207.675 231.234C226.293 231.234 246.913 229.23 246.913 229.23C262.93 227.483 276.263 216.089 276.263 199.881V156.452C276.263 140.243 263.097 127.829 246.913 127.102C246.913 127.102 228.295 125.1 207.675 125.1C186.003 125.1 168.041 127.102 168.041 127.102C152.088 128.162 138.689 140.243 138.689 156.452V199.881Z" fill="#FFD74B"/>
<path d="M202.374 211.44H207.244C211.624 211.44 215.187 207.912 215.187 203.576V198.337C215.187 197.273 214.316 196.41 213.241 196.41C212.167 196.41 211.296 197.273 211.296 198.337V203.576C211.296 205.788 209.479 207.586 207.246 207.586H202.375C200.142 207.586 198.325 205.786 198.325 203.576V198.337C198.325 197.273 197.454 196.41 196.38 196.41C195.306 196.41 194.435 197.273 194.435 198.337V203.576C194.431 207.912 197.995 211.44 202.374 211.44Z" fill="black"/>
<g clip-path="url(#clip0_932_4089)">
<path d="M246.725 188.343C246.725 192.565 243.299 195.99 239.076 195.99C234.857 195.99 231.435 192.565 231.435 188.343C231.435 184.12 234.857 180.7 239.076 180.7C243.299 180.7 246.725 184.12 246.725 188.343Z" fill="black"/>
</g>
<g clip-path="url(#clip1_932_4089)">
<path d="M178.963 188.343C178.963 192.565 175.537 195.99 171.315 195.99C167.095 195.99 163.673 192.565 163.673 188.343C163.673 184.12 167.095 180.7 171.315 180.7C175.537 180.7 178.963 184.12 178.963 188.343Z" fill="black"/>
</g>
<path d="M205.498 303.123C205.498 320.719 200.977 335.879 195.398 335.879C189.822 335.879 185.295 320.72 185.295 303.123C185.295 285.526 185.295 277.514 195.398 277.514C205.498 277.514 205.498 285.527 205.498 303.123Z" fill="#E9552E"/>
<path d="M229.505 303.123C229.505 320.719 224.981 335.879 219.405 335.879C213.824 335.879 209.303 320.72 209.303 303.123C209.303 285.526 209.303 277.514 219.405 277.514C229.505 277.514 229.505 285.527 229.505 303.123Z" fill="#E9552E"/>
<path d="M245.248 284.142C245.248 299.259 232.992 311.516 217.872 311.516H196.929C181.81 311.516 169.556 299.259 169.556 284.142V260.625C169.556 245.506 181.81 249.874 196.929 249.874H217.872C232.992 249.874 245.248 245.506 245.248 260.625V284.142Z" fill="#E9552E"/>
<path d="M237.932 276.403C237.932 290.059 226.864 301.133 213.202 301.133H194.284C180.625 301.133 169.554 290.06 169.554 276.403V254.544C169.554 240.887 180.624 242.963 194.284 242.963H213.202C226.863 242.963 237.932 240.886 237.932 254.544V276.403Z" fill="#E9552E"/>
<path d="M169.554 261.919C173.084 261.919 175.945 259.058 175.945 255.528C175.945 251.998 173.084 249.136 169.554 249.136C166.024 249.136 163.162 251.998 163.162 255.528C163.162 259.058 166.024 261.919 169.554 261.919Z" fill="#E9552E"/>
<path d="M237.934 260.434C241.463 260.434 244.325 257.573 244.325 254.043C244.325 250.513 241.463 247.651 237.934 247.651C234.404 247.651 231.542 250.513 231.542 254.043C231.542 257.573 234.404 260.434 237.934 260.434Z" fill="#E9552E"/>
<path d="M203.921 389.2C242.305 389.2 273.421 358.084 273.421 319.7C273.421 281.316 242.305 250.2 203.921 250.2C165.537 250.2 134.421 281.316 134.421 319.7C134.421 358.084 165.537 389.2 203.921 389.2Z" fill="#363636"/>
<path d="M203.921 379.92C237.179 379.92 264.14 352.958 264.14 319.7C264.14 286.442 237.179 259.481 203.921 259.481C170.663 259.481 143.702 286.442 143.702 319.7C143.702 352.958 170.663 379.92 203.921 379.92Z" fill="#F8F8F8"/>
<path d="M203.92 324.947C206.818 324.947 209.168 322.598 209.168 319.7C209.168 316.802 206.818 314.452 203.92 314.452C201.022 314.452 198.673 316.802 198.673 319.7C198.673 322.598 201.022 324.947 203.92 324.947Z" fill="#E9552E"/>
<path fill-rule="evenodd" clip-rule="evenodd" d="M186.057 301.601C186.893 300.765 188.25 300.765 189.086 301.601L204.84 317.354C205.676 318.191 205.676 319.547 204.84 320.383C204.003 321.22 202.647 321.22 201.811 320.383L186.057 304.63C185.221 303.794 185.221 302.437 186.057 301.601Z" fill="#E9552E"/>
<path d="M179.231 294.776C179.231 294.776 181.115 304.222 183.427 308.546C186.989 306.579 191.558 307.103 194.579 310.124C191.558 307.103 191.035 302.534 193.001 298.972C188.677 296.659 179.231 294.776 179.231 294.776Z" fill="#E9552E"/>
<path fill-rule="evenodd" clip-rule="evenodd" d="M228.457 294.333C229.293 295.17 229.293 296.526 228.457 297.362L205.436 320.384C204.599 321.22 203.243 321.22 202.407 320.384C201.57 319.547 201.57 318.191 202.407 317.355L225.428 294.333C226.264 293.497 227.621 293.497 228.457 294.333Z" fill="#E9552E"/>
<path d="M236.806 285.984C236.806 285.984 234.644 294.689 232.329 298.743C229.173 297.117 224.98 297.811 222.081 300.709C224.98 297.811 225.674 293.617 224.047 290.461C228.102 288.148 236.806 285.984 236.806 285.984Z" fill="#E9552E"/>
<path d="M163.89 274.62C170.116 274.62 175.164 270.014 175.164 264.332C175.164 258.651 170.116 254.044 163.89 254.044C157.663 254.044 152.615 258.651 152.615 264.332C152.615 270.014 157.663 274.62 163.89 274.62Z" fill="#E9552E"/>
<path d="M240.779 277.236C247.006 277.236 252.054 272.63 252.054 266.948C252.054 261.266 247.006 256.66 240.779 256.66C234.553 256.66 229.505 261.266 229.505 266.948C229.505 272.63 234.553 277.236 240.779 277.236Z" fill="#E9552E"/>
<defs>
<clipPath id="clip0_932_4089">
<rect width="15.6375" height="30.9458" fill="white" transform="matrix(-1 0 0 1 246.725 180.7)"/>
</clipPath>
<clipPath id="clip1_932_4089">
<rect width="15.6375" height="30.9458" fill="white" transform="matrix(-1 0 0 1 178.963 180.7)"/>
</clipPath>
</defs>
</svg>
