<svg width="490" height="563" viewBox="0 0 490 563" fill="none" xmlns="http://www.w3.org/2000/svg">
<path d="M153.502 245.277C153.502 266.605 169.819 281.601 192.121 283.895C192.121 283.895 217.595 286.532 244.277 286.532C268.774 286.532 295.912 283.895 295.912 283.895C316.989 281.601 334.535 266.605 334.535 245.277V188.127C334.535 166.799 317.209 150.462 295.912 149.504C295.912 149.504 271.411 146.87 244.277 146.87C215.76 146.87 192.121 149.504 192.121 149.504C171.137 150.903 153.502 166.799 153.502 188.127V245.277Z" fill="#FFD74B"/>
<path d="M173.021 234.663C173.021 253.692 187.584 267.071 207.481 269.121C207.481 269.121 230.201 271.473 254.012 271.473C275.87 271.473 300.078 269.121 300.078 269.121C318.882 267.068 334.535 253.692 334.535 234.663V183.677C334.535 164.648 319.078 150.074 300.078 149.22C300.078 149.22 278.22 146.87 254.012 146.87C228.568 146.87 207.481 149.22 207.481 149.22C188.752 150.464 173.021 164.648 173.021 183.677V234.663Z" fill="#FFD74B"/>
<path d="M247.789 248.235H253.507C258.65 248.235 262.832 244.093 262.832 239.002V232.85C262.832 231.601 261.81 230.589 260.548 230.589C259.287 230.589 258.265 231.601 258.265 232.85V239.002C258.265 241.599 256.132 243.709 253.51 243.709H247.792C245.169 243.709 243.036 241.597 243.036 239.002V232.85C243.036 231.601 242.014 230.589 240.753 230.589C239.491 230.589 238.469 231.601 238.469 232.85V239.002C238.465 244.093 242.649 248.235 247.789 248.235Z" fill="black"/>
<g clip-path="url(#clip0_932_4180)">
<path d="M299.858 221.118C299.858 226.075 295.836 230.096 290.879 230.096C285.926 230.096 281.908 226.075 281.908 221.118C281.908 216.16 285.926 212.145 290.879 212.145C295.836 212.145 299.858 216.16 299.858 221.118Z" fill="black"/>
</g>
<g clip-path="url(#clip1_932_4180)">
<path d="M220.304 221.118C220.304 226.075 216.282 230.096 211.324 230.096C206.371 230.096 202.353 226.075 202.353 221.118C202.353 216.16 206.371 212.145 211.324 212.145C216.282 212.145 220.304 216.16 220.304 221.118Z" fill="black"/>
</g>
<path d="M242.615 351.823C242.615 372.484 237.307 390.285 230.756 390.285C224.208 390.285 218.894 372.484 218.894 351.823C218.894 331.16 218.894 321.753 230.756 321.753C242.615 321.753 242.615 331.16 242.615 351.823Z" fill="#FFD74B"/>
<path d="M270.807 351.823C270.807 372.484 265.494 390.285 258.945 390.285C252.392 390.285 247.085 372.484 247.085 351.823C247.085 331.16 247.085 321.753 258.945 321.753C270.807 321.753 270.807 331.16 270.807 351.823Z" fill="#FFD74B"/>
<path d="M289.29 329.536C289.29 347.286 274.901 361.679 257.146 361.679H232.555C214.799 361.679 200.411 347.286 200.411 329.536L200.411 301.898C200.411 284.147 214.799 287.218 232.555 287.218H257.146C274.901 287.218 289.29 284.147 289.29 301.898V329.536Z" fill="#FFD74B"/>
<path d="M201.395 325.371C180.812 323.609 163.531 316.791 164.089 310.267C164.647 303.739 182.839 299.971 203.424 301.736C224.011 303.504 233.384 304.308 232.369 316.125C231.356 327.942 221.985 327.138 201.395 325.371Z" fill="#FFD74B"/>
<path d="M287.173 302.637C307.526 299.098 325.974 301.284 327.095 307.736C328.219 314.19 311.59 322.472 291.234 326.012C270.876 329.551 261.609 331.16 259.578 319.475C257.545 307.789 266.812 306.178 287.173 302.637Z" fill="#FFD74B"/>
<path d="M280.701 320.448C280.701 336.483 267.704 349.486 251.664 349.486H229.449C213.409 349.486 200.411 336.483 200.411 320.448V296.799C200.411 280.761 213.409 284.205 229.449 284.205H251.664C267.704 284.205 280.701 280.761 280.701 296.799V320.448Z" fill="#FFD74B"/>
<path d="M200.41 303.438C204.555 303.438 207.915 300.078 207.915 295.933C207.915 291.789 204.555 288.429 200.41 288.429C196.265 288.429 192.905 291.789 192.905 295.933C192.905 300.078 196.265 303.438 200.41 303.438Z" fill="#FFD74B"/>
<path d="M280.701 301.698C284.846 301.698 288.206 298.338 288.206 294.193C288.206 290.048 284.846 286.688 280.701 286.688C276.556 286.688 273.196 290.048 273.196 294.193C273.196 298.338 276.556 301.698 280.701 301.698Z" fill="#FFD74B"/>
<path d="M353.136 368.371C353.136 375.148 347.642 380.641 340.864 380.641H295.363C288.586 380.641 283.092 375.148 283.092 368.371L280.793 348.705C280.793 341.928 288.586 336.435 295.363 336.435H340.864C347.642 336.435 355.434 341.928 355.434 348.705L353.136 368.371Z" fill="#B37900"/>
<path d="M354.669 354.453H281.56L280.026 343.192H356.203L354.669 354.453Z" fill="#815600"/>
<path d="M321.949 300.057C321.949 297.939 320.23 296.223 318.113 296.223C315.997 296.223 314.279 297.94 314.279 300.057V338.751C314.279 340.869 315.997 342.585 318.113 342.585C320.23 342.585 321.949 340.868 321.949 338.751V300.057Z" fill="#B37900"/>
<path d="M362.082 337.828C362.082 343.625 357.383 348.326 351.585 348.326H284.645C278.846 348.326 274.147 343.625 274.147 337.828C274.147 332.031 278.846 327.331 284.645 327.331H351.585C357.383 327.331 362.082 332.031 362.082 337.828Z" fill="#B37900"/>
<path d="M351.584 327.331H284.644C279.709 327.331 275.584 330.737 274.46 335.323C275.584 339.909 279.709 343.315 284.644 343.315H351.584C356.517 343.315 360.643 339.909 361.767 335.323C360.643 330.737 356.517 327.331 351.584 327.331Z" fill="#E69B00"/>
<path d="M177.248 310.646C177.248 310.646 156.867 274.997 124.087 273.519C124.087 273.519 135.227 292.967 158.803 297.278C158.803 297.278 166.016 296.897 177.248 310.646Z" fill="#30B595"/>
<path fill-rule="evenodd" clip-rule="evenodd" d="M140.572 252.174C141.675 251.347 143.24 251.57 144.068 252.673C158.899 272.439 169.705 291.641 176.803 305.901C180.353 313.034 182.98 318.936 184.721 323.063C185.592 325.127 186.242 326.747 186.675 327.856C186.892 328.41 187.055 328.836 187.164 329.127C187.219 329.272 187.26 329.383 187.288 329.458L187.321 329.545L187.329 329.569L187.332 329.578C187.333 329.579 187.333 329.579 185.004 330.427L187.333 329.579C187.805 330.875 187.136 332.308 185.84 332.78C184.545 333.251 183.112 332.583 182.64 331.288L182.638 331.284L182.632 331.267L182.605 331.193C182.58 331.127 182.542 331.025 182.491 330.889C182.389 330.617 182.233 330.21 182.024 329.675C181.606 328.605 180.972 327.026 180.12 325.005C178.414 320.963 175.831 315.156 172.332 308.127C165.332 294.064 154.679 275.136 140.073 255.671C139.245 254.568 139.468 253.002 140.572 252.174Z" fill="#30B595"/>
<path d="M141.272 260.009C147.559 257.033 150.297 249.634 147.386 243.485C144.474 237.336 137.017 234.764 130.729 237.741C124.441 240.718 121.704 248.116 124.615 254.265C127.526 260.415 134.984 262.986 141.272 260.009Z" fill="#30B595"/>
<path d="M124.486 260.518C131.199 257.34 134.122 249.44 131.013 242.874C127.905 236.308 119.942 233.562 113.228 236.74C106.515 239.919 103.592 247.818 106.701 254.385C109.81 260.951 117.772 263.697 124.486 260.518Z" fill="#E2663F"/>
<path d="M138.409 245.758C145.122 242.579 148.045 234.68 144.936 228.113C141.828 221.547 133.865 218.801 127.151 221.98C120.438 225.158 117.515 233.058 120.624 239.624C123.732 246.19 131.695 248.936 138.409 245.758Z" fill="#E2663F"/>
<path d="M135.129 254.459C142.591 250.927 145.839 242.148 142.384 234.851C138.93 227.554 130.08 224.502 122.619 228.034C115.157 231.567 111.909 240.346 115.364 247.643C118.818 254.94 127.668 257.992 135.129 254.459Z" fill="#FA8575"/>
<circle cx="344.736" cy="324.337" r="8.15942" fill="#FA8575"/>
<circle cx="354.935" cy="316.177" r="8.15942" fill="#E2663F"/>
<circle cx="359.015" cy="326.377" r="8.15942" fill="#FA8575"/>
<circle cx="332.497" cy="324.337" r="6.11957" fill="#E2663F"/>
<circle cx="344.736" cy="316.178" r="6.11957" fill="#FA8575"/>
<defs>
<clipPath id="clip0_932_4180">
<rect width="18.3587" height="36.3309" fill="white" transform="matrix(-1 0 0 1 299.858 212.145)"/>
</clipPath>
<clipPath id="clip1_932_4180">
<rect width="18.3587" height="36.3309" fill="white" transform="matrix(-1 0 0 1 220.304 212.145)"/>
</clipPath>
</defs>
</svg>
